<svg width="90" height="53" viewBox="0 0 90 53" fill="none" xmlns="http://www.w3.org/2000/svg">
<path d="M42.5556 3.22222L45 1M40.1111 15.4444L49.8889 6.55556M45 21L47.4444 18.7778M50.5 18.7778C51.3104 18.7778 52.0876 18.4851 52.6606 17.9642C53.2336 17.4433 53.5556 16.7367 53.5556 16C53.5556 15.2633 53.2336 14.5567 52.6606 14.0358C52.0876 13.5149 51.3104 13.2222 50.5 13.2222C49.6896 13.2222 48.9124 13.5149 48.3394 14.0358C47.7664 14.5567 47.4444 15.2633 47.4444 16C47.4444 16.7367 47.7664 17.4433 48.3394 17.9642C48.9124 18.4851 49.6896 18.7778 50.5 18.7778ZM39.5 8.77778C40.3104 8.77778 41.0876 8.48512 41.6606 7.96419C42.2336 7.44325 42.5556 6.73671 42.5556 6C42.5556 5.26329 42.2336 4.55675 41.6606 4.03581C41.0876 3.51488 40.3104 3.22222 39.5 3.22222C38.6896 3.22222 37.9124 3.51488 37.3394 4.03581C36.7664 4.55675 36.4444 5.26329 36.4444 6C36.4444 6.73671 36.7664 7.44325 37.3394 7.96419C37.9124 8.48512 38.6896 8.77778 39.5 8.77778ZM37.0556 21C37.8659 21 38.6431 20.7073 39.2162 20.1864C39.7892 19.6655 40.1111 18.9589 40.1111 18.2222C40.1111 17.4855 39.7892 16.779 39.2162 16.258C38.6431 15.7371 37.8659 15.4444 37.0556 15.4444C36.2452 15.4444 35.468 15.7371 34.895 16.258C34.3219 16.779 34 17.4855 34 18.2222C34 18.9589 34.3219 19.6655 34.895 20.1864C35.468 20.7073 36.2452 21 37.0556 21ZM52.9444 6.55556C53.7548 6.55556 54.532 6.2629 55.105 5.74196C55.6781 5.22103 56 4.51449 56 3.77778C56 3.04107 55.6781 2.33453 55.105 1.81359C54.532 1.29266 53.7548 1 52.9444 1C52.1341 1 51.3569 1.29266 50.7838 1.81359C50.2108 2.33453 49.8889 3.04107 49.8889 3.77778C49.8889 4.51449 50.2108 5.22103 50.7838 5.74196C51.3569 6.2629 52.1341 6.55556 52.9444 6.55556Z" stroke="black" stroke-width="2" stroke-linecap="round" stroke-linejoin="round"/>
<ellipse cx="36.5" cy="37" rx="16.5" ry="16" fill="#006704"/>
<path d="M30.5263 11.2632L27.9784 13.2316C27.3771 13.6962 26.6458 13.9474 25.8942 13.9474H20.0618C19.4967 13.9476 18.9454 14.1278 18.4835 14.4634C18.0216 14.799 17.6717 15.2735 17.4817 15.822C17.2917 16.3704 17.2709 16.9659 17.4222 17.527C17.5735 18.0881 17.8894 18.5872 18.3267 18.9561L21.8004 21.8837C23.1458 23.0178 24.1945 24.4806 24.851 26.139C25.5074 27.7974 25.7508 29.5986 25.5589 31.3786L25.5242 31.7007C25.386 32.9821 25.0804 34.2383 24.6158 35.4354L23.5789 38.1053M1 19.3158L6.62389 18.3495C7.16942 18.2557 7.7288 18.2974 8.2555 18.4712C8.78221 18.6451 9.26102 18.9459 9.65209 19.3489C10.0432 19.7518 10.3352 20.2451 10.5039 20.7878C10.6727 21.3305 10.7132 21.9068 10.6221 22.4688L10.3876 23.9129C10.1841 25.1727 10.3779 26.4664 10.9406 27.6043C11.5033 28.7422 12.4052 29.6643 13.5139 30.2352C14.3984 30.6912 15.1055 31.4443 15.5186 32.3702C15.9316 33.2961 16.0258 34.3395 15.7857 35.328L14.8947 39" stroke="black" stroke-width="2"/>
<path d="M17.5 39C26.6127 39 34 31.3888 34 22C34 12.6112 26.6127 5 17.5 5C8.3873 5 1 12.6112 1 22C1 31.3888 8.3873 39 17.5 39Z" stroke="black" stroke-width="2"/>
<path d="M11.9545 30.196V27.5455H25.8807V30.196H20.4858V45H17.3494V30.196H11.9545ZM47.5388 33.4347H44.3513C44.2604 32.9119 44.0928 32.4489 43.8485 32.0455C43.6041 31.6364 43.3002 31.2898 42.9365 31.0057C42.5729 30.7216 42.1581 30.5085 41.6922 30.3665C41.232 30.2188 40.7348 30.1449 40.2007 30.1449C39.2519 30.1449 38.411 30.3835 37.678 30.8608C36.9451 31.3324 36.3712 32.0256 35.9564 32.9403C35.5416 33.8494 35.3343 34.9602 35.3343 36.2727C35.3343 37.608 35.5416 38.733 35.9564 39.6477C36.3769 40.5568 36.9507 41.2443 37.678 41.7102C38.411 42.1705 39.249 42.4006 40.1922 42.4006C40.7149 42.4006 41.2036 42.3324 41.6581 42.196C42.1184 42.054 42.5303 41.8466 42.8939 41.5739C43.2632 41.3011 43.5729 40.9659 43.8229 40.5682C44.0786 40.1705 44.2547 39.7159 44.3513 39.2045L47.5388 39.2216C47.4195 40.0511 47.161 40.8295 46.7632 41.5568C46.3712 42.2841 45.857 42.9261 45.2206 43.483C44.5843 44.0341 43.8399 44.4659 42.9877 44.7784C42.1354 45.0852 41.1894 45.2386 40.1496 45.2386C38.6155 45.2386 37.2462 44.8835 36.0416 44.1733C34.8371 43.4631 33.8882 42.4375 33.1951 41.0966C32.5019 39.7557 32.1553 38.1477 32.1553 36.2727C32.1553 34.392 32.5047 32.7841 33.2036 31.4489C33.9024 30.108 34.8541 29.0824 36.0587 28.3722C37.2632 27.6619 38.6269 27.3068 40.1496 27.3068C41.1212 27.3068 42.0246 27.4432 42.8598 27.7159C43.6951 27.9886 44.4394 28.3892 45.0928 28.9176C45.7462 29.4403 46.2831 30.0824 46.7036 30.8438C47.1297 31.5994 47.4081 32.4631 47.5388 33.4347ZM49.338 45V31.9091H52.3295V34.0909H52.4659C52.7045 33.3352 53.1136 32.7528 53.6932 32.3438C54.2784 31.929 54.946 31.7216 55.696 31.7216C55.8664 31.7216 56.0568 31.7301 56.267 31.7472C56.4829 31.7585 56.6619 31.7784 56.8039 31.8068V34.6449C56.6733 34.5994 56.4659 34.5597 56.1818 34.5256C55.9034 34.4858 55.6335 34.4659 55.3721 34.4659C54.8096 34.4659 54.3039 34.5881 53.8551 34.8324C53.4119 35.071 53.0625 35.4034 52.8068 35.8295C52.5511 36.2557 52.4233 36.7472 52.4233 37.304V45H49.338ZM63.1501 45.2557C61.8376 45.2557 60.704 44.983 59.7495 44.4375C58.8006 43.8864 58.0705 43.108 57.5591 42.1023C57.0478 41.0909 56.7921 39.9006 56.7921 38.5312C56.7921 37.1847 57.0478 36.0028 57.5591 34.9858C58.0762 33.9631 58.7978 33.1676 59.7239 32.5994C60.6501 32.0256 61.7381 31.7386 62.9881 31.7386C63.7949 31.7386 64.5563 31.8693 65.2722 32.1307C65.9938 32.3864 66.6302 32.7841 67.1813 33.3239C67.7381 33.8636 68.1756 34.5511 68.4938 35.3864C68.812 36.2159 68.9711 37.2045 68.9711 38.3523V39.2983H58.241V37.2188H66.0137C66.008 36.6278 65.8802 36.1023 65.6302 35.642C65.3802 35.1761 65.0307 34.8097 64.5819 34.5426C64.1387 34.2756 63.6216 34.142 63.0307 34.142C62.4001 34.142 61.8461 34.2955 61.3688 34.6023C60.8915 34.9034 60.5194 35.3011 60.2523 35.7955C59.991 36.2841 59.8574 36.821 59.8518 37.4062V39.2216C59.8518 39.983 59.991 40.6364 60.2694 41.1818C60.5478 41.7216 60.937 42.1364 61.437 42.4261C61.937 42.7102 62.5222 42.8523 63.1927 42.8523C63.6415 42.8523 64.0478 42.7898 64.4114 42.6648C64.7751 42.5341 65.0904 42.3438 65.3574 42.0938C65.6245 41.8438 65.8262 41.5341 65.9626 41.1648L68.8432 41.4886C68.6614 42.25 68.3148 42.9148 67.8035 43.483C67.2978 44.0455 66.6501 44.483 65.8603 44.7955C65.0705 45.1023 64.1671 45.2557 63.1501 45.2557ZM73.2526 45L69.5537 31.9091H72.6986L74.9997 41.1136H75.119L77.4713 31.9091H80.5821L82.9344 41.0625H83.0622L85.3293 31.9091H88.4827L84.7753 45H81.5622L79.1077 36.1534H78.9287L76.4741 45H73.2526Z" fill="white"/>
</svg>