<svg xmlns="http://www.w3.org/2000/svg" fill="none" viewBox="0 0 79 53">
  <path stroke="#000" stroke-linecap="round" stroke-linejoin="round" stroke-width="2" d="m43 3 2-2m-5 14 10-8m-5 14 2-2m4 0 2-1 1-2-1-2-2-1-3 1-1 2 1 2 3 1ZM40 9l2-1 1-2-1-2-2-1-3 1-1 2 1 2 3 1Zm-3 12 2-1 1-2-1-2-2-1-2 1-1 2 1 2 2 1ZM53 7l2-1 1-2-1-2-2-1-2 1-1 2 1 2 2 1Z"/>
  <ellipse cx="36.5" cy="37" fill="#006704" rx="16.5" ry="16"/>
  <path stroke="#000" stroke-width="2" d="m31 11-3 2-2 1h-8l-1 2a3 3 0 0 0 1 3l4 3a11 11 0 0 1 4 9v1l-1 3-1 3M1 19l6-1a3 3 0 0 1 3 1 4 4 0 0 1 1 3l-1 2 1 4c1 1 1 2 3 2l2 2v3l-1 4"/>
  <path stroke="#000" stroke-width="2" d="M18 39c9 0 16-8 16-17S27 5 18 5C8 5 1 13 1 22s7 17 17 17Z"/>
  <path fill="#fff" d="M18 44h-2V27h-4 10-4v17Zm20 0-7-2-1-3a12 12 0 0 1 0-7c0-2 1-2 2-3l6-2a10 10 0 0 1 3 1l-3-1-5 2-1 4a15 15 0 0 0 0 7l1 2 2 1a6 6 0 0 0 3 1h2l1-1h1l-4 1Zm9-11-2 1v10h-2V32h2v4l1-3 2-1h1l1 1-1 1a1 1 0 0 1-2-1Zm4 5 1 5 3 1 4-1h1l-5 1-4-1-1-5 1-4c1-2 3-2 4-2l4 1 1 4h-9v1Zm7-1v-4l-3-1-2 1-2 4h7Zm19-5 1 1-1 1-4 10-4-9-4 9-5-12h2l4 10 3-8-1-2h2l4 10 3-8v-2Z"/>
</svg>