<svg width="79" height="53" viewBox="0 0 79 53" fill="none" xmlns="http://www.w3.org/2000/svg">
<path d="M42.5556 3.22222L45 1M40.1111 15.4444L49.8889 6.55556M45 21L47.4444 18.7778M50.5 18.7778C51.3104 18.7778 52.0876 18.4851 52.6606 17.9642C53.2336 17.4433 53.5556 16.7367 53.5556 16C53.5556 15.2633 53.2336 14.5567 52.6606 14.0358C52.0876 13.5149 51.3104 13.2222 50.5 13.2222C49.6896 13.2222 48.9124 13.5149 48.3394 14.0358C47.7664 14.5567 47.4444 15.2633 47.4444 16C47.4444 16.7367 47.7664 17.4433 48.3394 17.9642C48.9124 18.4851 49.6896 18.7778 50.5 18.7778ZM39.5 8.77778C40.3104 8.77778 41.0876 8.48512 41.6606 7.96419C42.2336 7.44325 42.5556 6.73671 42.5556 6C42.5556 5.26329 42.2336 4.55675 41.6606 4.03581C41.0876 3.51488 40.3104 3.22222 39.5 3.22222C38.6896 3.22222 37.9124 3.51488 37.3394 4.03581C36.7664 4.55675 36.4444 5.26329 36.4444 6C36.4444 6.73671 36.7664 7.44325 37.3394 7.96419C37.9124 8.48512 38.6896 8.77778 39.5 8.77778ZM37.0556 21C37.8659 21 38.6431 20.7073 39.2162 20.1864C39.7892 19.6655 40.1111 18.9589 40.1111 18.2222C40.1111 17.4855 39.7892 16.779 39.2162 16.258C38.6431 15.7371 37.8659 15.4444 37.0556 15.4444C36.2452 15.4444 35.468 15.7371 34.895 16.258C34.3219 16.779 34 17.4855 34 18.2222C34 18.9589 34.3219 19.6655 34.895 20.1864C35.468 20.7073 36.2452 21 37.0556 21ZM52.9444 6.55556C53.7548 6.55556 54.532 6.2629 55.105 5.74196C55.6781 5.22103 56 4.51449 56 3.77778C56 3.04107 55.6781 2.33453 55.105 1.81359C54.532 1.29266 53.7548 1 52.9444 1C52.1341 1 51.3569 1.29266 50.7838 1.81359C50.2108 2.33453 49.8889 3.04107 49.8889 3.77778C49.8889 4.51449 50.2108 5.22103 50.7838 5.74196C51.3569 6.2629 52.1341 6.55556 52.9444 6.55556Z" stroke="black" stroke-width="2" stroke-linecap="round" stroke-linejoin="round"/>
<ellipse cx="36.5" cy="37" rx="16.5" ry="16" fill="#006704"/>
<path d="M30.5263 11.2632L27.9784 13.2316C27.3771 13.6962 26.6458 13.9474 25.8942 13.9474H20.0618C19.4967 13.9476 18.9454 14.1278 18.4835 14.4634C18.0216 14.799 17.6717 15.2735 17.4817 15.822C17.2917 16.3704 17.2709 16.9659 17.4222 17.527C17.5735 18.0881 17.8894 18.5872 18.3267 18.9561L21.8004 21.8837C23.1458 23.0178 24.1945 24.4806 24.851 26.139C25.5074 27.7974 25.7508 29.5986 25.5589 31.3786L25.5242 31.7007C25.386 32.9821 25.0804 34.2383 24.6158 35.4354L23.5789 38.1053M1 19.3158L6.62389 18.3495C7.16942 18.2557 7.7288 18.2974 8.2555 18.4712C8.78221 18.6451 9.26102 18.9459 9.65209 19.3489C10.0432 19.7518 10.3352 20.2451 10.5039 20.7878C10.6727 21.3305 10.7132 21.9068 10.6221 22.4688L10.3876 23.9129C10.1841 25.1727 10.3779 26.4664 10.9406 27.6043C11.5033 28.7422 12.4052 29.6643 13.5139 30.2352C14.3984 30.6912 15.1055 31.4443 15.5186 32.3702C15.9316 33.2961 16.0258 34.3395 15.7857 35.328L14.8947 39" stroke="black" stroke-width="2"/>
<path d="M17.5 39C26.6127 39 34 31.3888 34 22C34 12.6112 26.6127 5 17.5 5C8.3873 5 1 12.6112 1 22C1 31.3888 8.3873 39 17.5 39Z" stroke="black" stroke-width="2"/>
<path d="M17.864 44H15.872V27.44H11.72V27.2H22.04V27.44H17.864V44ZM37.5935 44.096C34.6015 44.096 32.3855 43.248 30.9455 41.552C30.4335 40.944 30.0175 40.136 29.6975 39.128C29.3775 38.12 29.2175 36.896 29.2175 35.456C29.2175 34.016 29.4495 32.728 29.9135 31.592C30.3935 30.44 31.0415 29.552 31.8575 28.928C33.4415 27.76 35.3535 27.176 37.5935 27.176C38.2335 27.176 38.8575 27.232 39.4655 27.344C40.0735 27.44 40.5295 27.544 40.8335 27.656L41.2655 27.824L41.1935 28.064C40.1055 27.632 38.9055 27.416 37.5935 27.416C35.8975 27.416 34.4815 27.968 33.3455 29.072C32.4815 29.888 31.8735 31.088 31.5215 32.672C31.3135 33.568 31.2095 34.664 31.2095 35.96C31.2095 37.256 31.3935 38.456 31.7615 39.56C32.1295 40.648 32.5455 41.456 33.0095 41.984C33.4895 42.512 34.0655 42.936 34.7375 43.256C35.4095 43.56 35.9455 43.736 36.3455 43.784C36.7455 43.832 37.2255 43.856 37.7855 43.856C38.3615 43.856 39.0095 43.8 39.7295 43.688C40.4495 43.576 40.9935 43.472 41.3615 43.376L41.9135 43.208L41.9855 43.448C40.7695 43.88 39.3055 44.096 37.5935 44.096ZM47.414 33.032V32.528C46.694 32.816 46.038 33.4 45.446 34.28C44.854 35.144 44.542 35.96 44.51 36.728V44H42.83V32H44.51V35.816C44.766 34.888 45.254 34.016 45.974 33.2C46.694 32.368 47.51 31.936 48.422 31.904H48.518C48.838 31.904 49.102 32.016 49.31 32.24C49.534 32.448 49.646 32.712 49.646 33.032C49.646 33.352 49.534 33.616 49.31 33.824C49.102 34.032 48.838 34.136 48.518 34.136C48.198 34.136 47.934 34.032 47.726 33.824C47.518 33.616 47.414 33.352 47.414 33.032ZM51.4004 38.144C51.4004 40.128 51.7444 41.584 52.4324 42.512C53.1364 43.44 54.0564 43.904 55.1924 43.904C56.7924 43.904 58.2164 43.664 59.4644 43.184L59.5364 43.352C58.2564 43.848 56.8084 44.096 55.1924 44.096C53.5924 44.096 52.2884 43.616 51.2804 42.656C50.2724 41.696 49.7684 40.216 49.7684 38.216C49.7684 36.216 50.2964 34.664 51.3524 33.56C52.4084 32.456 53.7524 31.904 55.3844 31.904C56.6964 31.904 57.8004 32.296 58.6964 33.08C59.5924 33.864 60.0404 35.024 60.0404 36.56C60.0404 36.64 60.0404 36.72 60.0404 36.8H51.4724C51.4244 37.232 51.4004 37.68 51.4004 38.144ZM58.4084 36.608C58.3924 35.072 58.0964 33.936 57.5204 33.2C56.9444 32.464 56.2004 32.096 55.2884 32.096C54.3764 32.096 53.5604 32.496 52.8404 33.296C52.1364 34.096 51.6884 35.2 51.4964 36.608H58.4084ZM77.0866 32.144L77.2306 32C77.2946 32.032 77.3746 32.128 77.4706 32.288C77.5826 32.448 77.6466 32.592 77.6626 32.72C77.6946 32.848 77.7106 32.968 77.7106 33.08C77.7106 33.512 77.6146 33.952 77.4226 34.4L73.0546 44H72.8146L69.3586 34.712L65.1346 44H64.8946L60.4306 32H62.1106L65.7826 41.936L69.2386 34.424L68.3506 32H70.0306L73.7026 41.936L77.1826 34.4C77.3746 34.064 77.4706 33.664 77.4706 33.2C77.4706 32.736 77.3426 32.384 77.0866 32.144Z" fill="white"/>
</svg>